<svg xmlns="http://www.w3.org/2000/svg" viewBox="0 0 1138 47">
  <path d="M145.2 365.93h25.41l-40.6 111.58h-18.44l-26.34-71.75-9.92 27.27-16.27 44.48H40.6L0 365.93h25.57l24.33 66.48 3.87-10.38 20.46-56.1h22.16l24.48 66.48 3.87-10.38 20.46-56.1Zm56.41 0h147.54c6.3 0 11.7 2.25 16.19 6.74s6.74 9.89 6.74 16.19v65.71c0 6.3-2.25 11.7-6.74 16.19s-9.89 6.74-16.19 6.74H201.61c-6.41 0-11.83-2.22-16.27-6.66s-6.66-9.86-6.66-16.27v-65.71c0-6.4 2.22-11.83 6.66-16.27s9.86-6.66 16.27-6.66Zm1.08 24.17v63.23h145.06V390.1H202.69Zm297.86-1.08v28.82c0 6.3-2.27 11.7-6.82 16.19-4.55 4.49-9.97 6.74-16.27 6.74h-1.08l24.17 28.51v8.21h-24.79l-30.84-36.73-31.92.16c.31 0 .46.31.46.93-.21 0-.36-.05-.46-.16v35.8h-24.02V366.07h88.49c6.3 0 11.72 2.25 16.27 6.74 4.54 4.49 6.82 9.89 6.82 16.19v.02Zm-87.57 1.08v26.5h63.23v-26.5h-63.23Zm186.75-24.17h25.1v8.37L585 421.72l39.83 47.42v8.37h-25.1l-36.57-43.7h-21.85v43.7h-24.17V365.93h24.17v43.7h21.85l13.95-16.58 22.62-27.12Zm41.06 0h103.05v24.17h-78.72v19.53h63.38v24.17h-63.38v43.7h-24.33V365.92ZM752.68 477.5V365.92h24.17V477.5h-24.17Zm137.3-111.57v24.17h-78.72v19.53h63.38v24.17h-63.38v19.53h78.72v24.17H786.93V365.92h103.05Zm15.49 111.57V365.77h24.02v87.56h87.56v24.17H905.47Zm120.87-111.57h88.49c6.4 0 11.85 2.25 16.35 6.74s6.74 9.89 6.74 16.19v65.71c0 6.3-2.25 11.7-6.74 16.19s-9.94 6.74-16.35 6.74h-88.49V365.92Zm24.02 24.18v63.23h63.23v-63.23h-63.23Zm-331.3-55.38c31.67-35.53 50.92-82.37 50.92-133.71.01-109.94-88.26-199.27-197.8-201-110.81-1.74-203.73 89.22-204.25 200.04-.24 51.71 19.05 98.91 50.91 134.65" style="fill:#6366f1"/>
  <path d="M678.92 94.82c-2.6 21.97-4.71 24.08-26.68 26.68 21.97 2.6 24.08 4.71 26.68 26.68 2.6-21.97 4.71-24.08 26.68-26.68-21.97-2.6-24.08-4.71-26.68-26.68Zm-109.49 129.8c-2.6 21.97-4.71 24.08-26.68 26.68 21.97 2.6 24.08 4.71 26.68 26.68 2.6-21.97 4.71-24.08 26.68-26.68-21.97-2.6-24.08-4.71-26.68-26.68Zm-118.08-53.14c-1.85 15.68-3.36 17.18-19.04 19.04 15.68 1.86 17.18 3.36 19.04 19.04 1.86-15.68 3.36-17.18 19.04-19.04-15.68-1.86-17.18-3.36-19.04-19.04Z" style="fill:#fff"/>
</svg>
